<svg width="30" height="30" viewBox="0 0 30 30" fill="none" xmlns="http://www.w3.org/2000/svg">
<rect width="30" height="30" rx="15" fill="#DFD6FF"/>
<path d="M14.25 9H9C8.60218 9 8.22064 9.15804 7.93934 9.43934C7.65804 9.72064 7.5 10.1022 7.5 10.5V21C7.5 21.3978 7.65804 21.7794 7.93934 22.0607C8.22064 22.342 8.60218 22.5 9 22.5H19.5C19.8978 22.5 20.2794 22.342 20.5607 22.0607C20.842 21.7794 21 21.3978 21 21V15.75" stroke="#5E39DD" stroke-linecap="round" stroke-linejoin="round"/>
<path d="M19.875 7.875C20.1734 7.57663 20.578 7.40901 21 7.40901C21.422 7.40901 21.8266 7.57663 22.125 7.875C22.4234 8.17337 22.591 8.57805 22.591 9C22.591 9.42196 22.4234 9.82663 22.125 10.125L15 17.25L12 18L12.75 15L19.875 7.875Z" stroke="#5E39DD" stroke-linecap="round" stroke-linejoin="round"/>
</svg>
