<svg width="250" height="250" viewBox="0 0 250 250" fill="none" xmlns="http://www.w3.org/2000/svg">
<path d="M187.5 83.3333C187.5 66.7573 180.915 50.8602 169.194 39.1392C157.473 27.4181 141.576 20.8333 125 20.8333C108.424 20.8333 92.5269 27.4181 80.8058 39.1392C69.0848 50.8602 62.5 66.7573 62.5 83.3333C62.5 156.25 31.25 177.083 31.25 177.083H218.75C218.75 177.083 187.5 156.25 187.5 83.3333Z" stroke="black" stroke-width="10" stroke-linecap="round" stroke-linejoin="round"/>
<path d="M143.021 218.75C141.189 221.907 138.561 224.528 135.398 226.349C132.235 228.171 128.65 229.13 125 229.13C121.35 229.13 117.764 228.171 114.602 226.349C111.439 224.528 108.81 221.907 106.979 218.75" stroke="black" stroke-width="10" stroke-linecap="round" stroke-linejoin="round"/>
<ellipse cx="183.708" cy="38.0417" rx="26.0417" ry="26.0417" fill="#02F78F"/>
</svg>
