<svg width="300" height="300" viewBox="0 0 300 300" fill="none" xmlns="http://www.w3.org/2000/svg">
<path d="M269.735 200.572C270.811 198.029 269.621 195.095 267.077 194.02C264.534 192.944 261.6 194.134 260.525 196.678L269.735 200.572ZM73.3384 35.375C73.3384 50.1026 85.2775 62.0417 100.005 62.0417C114.733 62.0417 126.672 50.1026 126.672 35.375C126.672 20.6474 114.733 8.70833 100.005 8.70833C85.2775 8.70833 73.3384 20.6474 73.3384 35.375ZM265.13 198.625L260.525 196.678C252.891 214.731 240.95 230.64 225.747 243.013L228.904 246.891L232.06 250.769C248.529 237.365 261.465 220.131 269.735 200.572L265.13 198.625ZM228.904 246.891L225.747 243.013C210.544 255.386 192.542 263.847 173.314 267.655L174.286 272.56L175.257 277.464C196.087 273.339 215.59 264.173 232.06 250.769L228.904 246.891ZM174.286 272.56L173.314 267.655C154.086 271.463 134.218 270.503 115.447 264.859L114.007 269.647L112.567 274.436C132.903 280.55 154.427 281.59 175.257 277.464L174.286 272.56ZM114.007 269.647L115.447 264.859C96.6753 259.215 79.5723 249.059 65.6331 235.278L62.1178 238.833L58.6025 242.389C73.7034 257.318 92.2315 268.321 112.567 274.436L114.007 269.647ZM62.1178 238.833L65.6331 235.278C51.6938 221.497 41.3426 204.511 35.4845 185.805L30.713 187.299L25.9415 188.794C32.2878 209.058 43.5016 227.459 58.6025 242.389L62.1178 238.833ZM30.713 187.299L35.4845 185.805C29.6263 167.099 28.4396 147.244 32.028 127.973L27.1125 127.058L22.197 126.143C18.3095 147.019 19.5952 168.529 25.9415 188.794L30.713 187.299ZM27.1125 127.058L32.028 127.973C35.6164 108.703 43.8708 90.6052 56.0694 75.262L52.1556 72.1504L48.2418 69.0387C35.0267 85.6605 26.0845 105.266 22.197 126.143L27.1125 127.058ZM52.1556 72.1504L56.0694 75.262C68.268 59.9188 84.0394 47.7975 102.005 39.9577L100.005 35.375L98.0053 30.7923C78.5427 39.2855 61.457 52.4169 48.2418 69.0387L52.1556 72.1504Z" fill="#5E39DD"/>
<path d="M275.005 150C275.005 133.585 271.772 117.33 265.49 102.165C259.208 86.9989 250.001 73.219 238.393 61.6117C226.786 50.0043 213.006 40.7969 197.84 34.5151C182.675 28.2332 166.42 25 150.005 25V150H275.005Z" stroke="#05DF83" stroke-width="10" stroke-linecap="round" stroke-linejoin="round"/>
</svg>
