<svg width="7" height="17" viewBox="0 0 7 17" fill="none" xmlns="http://www.w3.org/2000/svg">
<path d="M0.142857 9.57143C0.142858 9.33705 0.337054 9.14286 0.571429 9.14286L6.57143 9.14286C6.8058 9.14286 7 9.33705 7 9.57143C7 9.68527 6.95313 9.79241 6.87277 9.87277L3.87277 12.8728C3.79241 12.9531 3.68527 13 3.57143 13C3.45759 13 3.35045 12.9531 3.27009 12.8728L0.270089 9.87277C0.189732 9.79241 0.142857 9.68527 0.142857 9.57143Z" fill="#5E39DD"/>
<path d="M6.85714 7.42857C6.85714 7.66295 6.66295 7.85714 6.42857 7.85714L0.428571 7.85714C0.194196 7.85714 0 7.66295 0 7.42857C0 7.31473 0.046875 7.20759 0.127232 7.12723L3.12723 4.12723C3.20759 4.04687 3.31473 4 3.42857 4C3.54241 4 3.64955 4.04687 3.72991 4.12723L6.72991 7.12723C6.81027 7.20759 6.85714 7.31473 6.85714 7.42857Z" fill="#5E39DD"/>
</svg>
